<svg width="23" height="26" viewBox="0 0 23 26" fill="none" xmlns="http://www.w3.org/2000/svg">
<path d="M0 24.31V9.62093C0 9.1883 0.0941904 8.77877 0.282571 8.39233C0.470952 8.00589 0.730524 7.68762 1.06129 7.4375L9.90807 0.545857C10.3714 0.181953 10.9004 0 11.4951 0C12.0898 0 12.6221 0.181953 13.0919 0.545857L21.9387 7.43581C22.2706 7.68593 22.5301 8.00477 22.7174 8.39233C22.9058 8.77877 23 9.1883 23 9.62093V24.31C23 24.763 22.8363 25.1578 22.5088 25.4947C22.1813 25.8316 21.7974 26 21.3571 26H15.7977C15.421 26 15.1055 25.8693 14.8514 25.6079C14.5973 25.3454 14.4703 25.021 14.4703 24.6345V16.5751C14.4703 16.1887 14.3432 15.8648 14.0891 15.6034C13.834 15.3409 13.5185 15.2096 13.1429 15.2096H9.85714C9.48148 15.2096 9.1666 15.3409 8.9125 15.6034C8.65731 15.8648 8.52972 16.1887 8.52972 16.5751V24.6362C8.52972 25.0226 8.40267 25.3465 8.14857 25.6079C7.89448 25.8693 7.5796 26 7.20393 26H1.64286C1.20257 26 0.81869 25.8316 0.491214 25.4947C0.163738 25.1578 0 24.763 0 24.31Z" fill="white"/>
</svg>
