<svg width="19" height="19" viewBox="0 0 19 19" fill="none" xmlns="http://www.w3.org/2000/svg">
<path d="M13.4583 14.25C12.5795 14.25 11.875 14.9546 11.875 15.8333C11.875 16.2532 12.0418 16.656 12.3387 16.9529C12.6356 17.2498 13.0384 17.4166 13.4583 17.4166C13.8782 17.4166 14.2809 17.2498 14.5779 16.9529C14.8748 16.656 15.0416 16.2532 15.0416 15.8333C15.0416 15.4134 14.8748 15.0107 14.5779 14.7137C14.2809 14.4168 13.8782 14.25 13.4583 14.25ZM0.791626 1.58331V3.16665H2.37496L5.22496 9.1754L4.14829 11.115C4.02954 11.3366 3.95829 11.5979 3.95829 11.875C3.95829 12.2949 4.12511 12.6976 4.42204 12.9946C4.71897 13.2915 5.1217 13.4583 5.54163 13.4583H15.0416V11.875H5.87413C5.82164 11.875 5.77129 11.8541 5.73418 11.817C5.69706 11.7799 5.67621 11.7296 5.67621 11.6771C5.67621 11.6375 5.68413 11.6058 5.69996 11.5821L6.41246 10.2916H12.3104C12.9041 10.2916 13.4266 9.95915 13.6958 9.47623L16.53 4.35415C16.5854 4.22748 16.625 4.0929 16.625 3.95831C16.625 3.74835 16.5416 3.54699 16.3931 3.39852C16.2446 3.25005 16.0433 3.16665 15.8333 3.16665H4.12454L3.38038 1.58331M5.54163 14.25C4.66288 14.25 3.95829 14.9546 3.95829 15.8333C3.95829 16.2532 4.12511 16.656 4.42204 16.9529C4.71897 17.2498 5.1217 17.4166 5.54163 17.4166C5.96155 17.4166 6.36428 17.2498 6.66121 16.9529C6.95814 16.656 7.12496 16.2532 7.12496 15.8333C7.12496 15.4134 6.95814 15.0107 6.66121 14.7137C6.36428 14.4168 5.96155 14.25 5.54163 14.25Z" fill="#FFDF02"/>
</svg>
