<svg width="23" height="25" viewBox="0 0 23 25" fill="none" xmlns="http://www.w3.org/2000/svg">
<path d="M19.3466 19.2109L23 23.2078L21.3512 25L17.6503 21.0418C16.8319 21.5962 15.8592 21.9185 14.8272 21.9185C11.8618 21.9185 9.48943 19.3399 9.48943 16.1166C9.48943 12.8932 11.8618 10.3146 14.8272 10.3146C17.7927 10.3146 20.165 12.8932 20.165 16.1166C20.165 17.2512 19.8685 18.3213 19.3466 19.2109ZM14.8272 19.3399C15.6137 19.3399 16.368 19.0003 16.9241 18.3958C17.4802 17.7913 17.7927 16.9714 17.7927 16.1166C17.7927 15.2617 17.4802 14.4418 16.9241 13.8373C16.368 13.2328 15.6137 12.8932 14.8272 12.8932C14.0407 12.8932 13.2865 13.2328 12.7303 13.8373C12.1742 14.4418 11.8618 15.2617 11.8618 16.1166C11.8618 16.9714 12.1742 17.7913 12.7303 18.3958C13.2865 19.0003 14.0407 19.3399 14.8272 19.3399ZM21.3512 0V2.57865H0V0H21.3512ZM0 15.4719V12.8932H7.11707V15.4719H0ZM0 9.02527V6.44662H21.3512V9.02527H18.9433C17.7452 8.213 16.3337 7.73595 14.8272 7.73595C13.3208 7.73595 11.9092 8.213 10.7112 9.02527H0Z" fill="white"/>
</svg>
