<svg width="19" height="19" viewBox="0 0 19 19" fill="none" xmlns="http://www.w3.org/2000/svg">
<path fill-rule="evenodd" clip-rule="evenodd" d="M15.2673 9.07414C15.8271 8.50556 16.1381 7.7379 16.1318 6.94005C16.1256 6.14219 15.8027 5.37948 15.2341 4.81972C14.9525 4.54256 14.6192 4.32356 14.253 4.17523C13.8868 4.0269 13.495 3.95214 13.1 3.95523C12.3021 3.96147 11.5394 4.28439 10.9797 4.85297C10.8277 5.00497 10.6345 5.19154 10.4002 5.41268L9.74862 6.02622L9.09708 5.41268C8.86222 5.19102 8.66879 5.00445 8.51679 4.85297C7.95262 4.2888 7.18744 3.97186 6.38958 3.97186C5.59172 3.97186 4.82654 4.2888 4.26237 4.85297C3.10021 6.01593 3.08675 7.89614 4.21962 9.06464L9.74862 14.5936L15.2673 9.07414ZM3.59025 4.18164C3.95783 3.81396 4.39424 3.5223 4.87455 3.32331C5.35487 3.12432 5.86968 3.0219 6.38958 3.0219C6.90948 3.0219 7.4243 3.12432 7.90461 3.32331C8.38493 3.5223 8.82134 3.81396 9.18891 4.18164C9.333 4.32625 9.51957 4.50622 9.74862 4.72156C9.97662 4.50622 10.1632 4.32599 10.3083 4.18085C11.045 3.43286 12.0486 3.00813 13.0984 3.00012C14.1482 2.9921 15.1582 3.40144 15.9062 4.1381C16.6542 4.87475 17.0789 5.87838 17.0869 6.92818C17.095 7.97799 16.6856 8.98798 15.949 9.73597L10.3083 15.3774C10.1599 15.5258 9.95854 15.6092 9.74862 15.6092C9.5387 15.6092 9.33737 15.5258 9.18891 15.3774L3.54671 9.73518C2.82315 8.98896 2.42215 7.98808 2.4303 6.9487C2.43844 5.90932 2.85509 4.91485 3.59025 4.18006V4.18164Z" fill="#FFDF02"/>
</svg>
