<svg width="26" height="23" viewBox="0 0 26 23" fill="none" xmlns="http://www.w3.org/2000/svg">
<path fill-rule="evenodd" clip-rule="evenodd" d="M22.772 11.0796C23.7649 10.0425 24.3166 8.64226 24.3055 7.18691C24.2944 5.73156 23.7216 4.34034 22.713 3.3193C22.2136 2.81373 21.6222 2.41426 20.9727 2.1437C20.3231 1.87313 19.6281 1.73677 18.9273 1.7424C17.512 1.75378 16.159 2.34282 15.166 3.37995C14.8964 3.65721 14.5537 3.99752 14.138 4.4009L12.9823 5.52004L11.8265 4.4009C11.4099 3.99656 11.0667 3.65625 10.7971 3.37995C9.79632 2.35087 8.43896 1.77273 7.02363 1.77273C5.6083 1.77273 4.25094 2.35087 3.25015 3.37995C1.18857 5.50126 1.1647 8.93089 3.17432 11.0623L12.9823 21.1476L22.772 11.0796ZM2.05786 2.15539C2.70992 1.48473 3.48407 0.952715 4.3361 0.589743C5.18814 0.226772 6.10137 0.0399508 7.02363 0.0399508C7.94589 0.0399508 8.85912 0.226772 9.71116 0.589743C10.5632 0.952715 11.3373 1.48473 11.9894 2.15539C12.245 2.41917 12.5759 2.74745 12.9823 3.14024C13.3867 2.74745 13.7177 2.41869 13.9751 2.15395C15.2819 0.789557 17.0622 0.0148347 18.9245 0.00021083C20.7868 -0.014413 22.5784 0.732259 23.9053 2.07597C25.2321 3.41968 25.9856 5.25036 25.9998 7.16527C26.014 9.08019 25.2879 10.9225 23.9811 12.2869L13.9751 22.5772C13.7118 22.8479 13.3547 23 12.9823 23C12.6099 23 12.2528 22.8479 11.9894 22.5772L1.98062 12.2854C0.697108 10.9243 -0.0142357 9.09859 0.000215967 7.20269C0.0146676 5.30679 0.753755 3.49281 2.05786 2.1525V2.15539Z" fill="white"/>
</svg>
